<svg xmlns="http://www.w3.org/2000/svg" width="50" height="50" viewBox="0 0 50 50">
  <g fill="#FFF" fill-rule="evenodd">
    <rect width="50" height="50" fill="none"/>
    <path fill-rule="nonzero" d="M41.4485655,21.2539772 C42.1315264,21.2850061 42.6598822,21.8638177 42.6289611,22.5468326 C42.6247768,22.6388278 42.6185963,22.7404533 42.6102079,22.8512273 L42.5782082,23.2105123 L42.5782082,23.2105123 L42.5316934,23.6217955 L42.5316934,23.6217955 L42.4693948,24.0821848 L42.4693948,24.0821848 L42.3900439,24.5887883 L42.3900439,24.5887883 L42.292372,25.1387138 C42.2744962,25.2338175 42.2558041,25.3306058 42.2362693,25.4290185 C41.8143833,27.555069 41.1316382,29.6828464 40.1241953,31.6800323 C37.4291788,37.0229123 32.9261483,40.3971985 26.4086979,40.8900674 L25.9987324,40.9171116 L25.9987324,45.4234882 L36.4808016,45.4234882 C37.1644101,45.4234882 37.7186683,45.9777464 37.7186683,46.661355 C37.7186683,47.3023391 37.2315273,47.8294468 36.6073586,47.8928314 L36.4808016,47.8992217 L13.1797237,47.8992217 C12.4960073,47.8992217 11.941857,47.3450714 11.941857,46.661355 C11.941857,46.020472 12.4289031,45.4932758 13.0531489,45.4298797 L13.1797237,45.4234882 L23.5229989,45.4234882 L23.5229989,40.9094487 C16.8529053,40.4933909 12.2580826,37.0999016 9.52429608,31.6800323 C8.5167992,29.6828464 7.83410805,27.5550691 7.41222208,25.4290185 L7.30490754,24.8585165 L7.30490754,24.8585165 L7.21653999,24.3298905 L7.21653999,24.3298905 L7.1458579,23.8460326 L7.1458579,23.8460326 L7.09159974,23.4098348 L7.09159974,23.4098348 L7.052504,23.0241892 L7.052504,23.0241892 L7.02730915,22.6919879 C7.02419833,22.6412354 7.02161415,22.5928302 7.01953033,22.5468326 C6.98839343,21.8638177 7.5168571,21.2850061 8.19987204,21.2539772 C8.84009734,21.2248875 9.38883251,21.6875394 9.4804906,22.3081826 L9.52089639,22.8033886 L9.52089639,22.8033886 L9.55106194,23.0957484 L9.55106194,23.0957484 C9.61279606,23.6520033 9.70707015,24.274849 9.84046771,24.9470712 C10.2215574,26.8673593 10.837172,28.7858665 11.7346375,30.5650942 C14.2485231,35.5489392 18.4280434,38.4929132 24.8242187,38.5130415 C31.2204481,38.4929132 35.3998065,35.5489392 37.9138,30.5650942 C38.8112655,28.7858665 39.4267722,26.8673053 39.8078618,24.9470712 C39.9413133,24.274849 40.0356414,23.6520033 40.0973756,23.0957484 L40.1383001,22.683441 L40.1383001,22.683441 L40.15571,22.4343189 L40.15571,22.4343189 C40.1868469,21.7514119 40.7656585,21.2229482 41.4485655,21.2539772 Z M24.7277861,1.03431811 C30.2652292,1.03431811 34.7717072,5.45158401 34.9203849,10.9435284 L34.924173,11.2236897 L34.924173,24.2016207 C34.924173,29.8291412 30.3475899,34.3909923 24.7277861,34.3909923 C19.1903431,34.3909923 14.6838651,29.9738829 14.5351873,24.4817898 L14.5313993,24.2016206 L14.5313993,11.2236897 C14.5313993,5.59627708 19.1078745,1.03431811 24.7277861,1.03431811 Z M24.7278401,3.51005152 C20.5523235,3.51005152 17.1406309,6.83661824 17.0109562,10.9790926 L17.0071327,11.2236897 L17.0071327,24.2016206 C17.0071327,28.4575531 20.4658637,31.9152588 24.7278401,31.9152588 C28.9033567,31.9152588 32.3150493,28.5887959 32.444724,24.4462237 L32.4485475,24.2016206 L32.4485475,11.2236897 C32.4485475,6.96786511 28.9898165,3.51005152 24.7278401,3.51005152 Z"/>
  </g>
</svg>
