<svg xmlns="http://www.w3.org/2000/svg" width="116" height="116" viewBox="0 0 116 116">
  <g fill="none" fill-rule="evenodd">
    <circle cx="58" cy="58" r="58" fill="#7278F5"/>
    <path fill="#FFF" fill-rule="nonzero" d="M74.4485655,54.2539772 C75.1315264,54.2850061 75.6598822,54.8638177 75.6289611,55.5468326 C75.6247768,55.6388278 75.6185963,55.7404533 75.6102079,55.8512273 L75.5782082,56.2105123 L75.5782082,56.2105123 L75.5316934,56.6217955 L75.5316934,56.6217955 L75.4693948,57.0821848 L75.4693948,57.0821848 L75.3900439,57.5887883 L75.3900439,57.5887883 L75.292372,58.1387138 C75.2744962,58.2338175 75.2558041,58.3306058 75.2362693,58.4290185 C74.8143833,60.555069 74.1316382,62.6828464 73.1241953,64.6800323 C70.4291788,70.0229123 65.9261483,73.3971985 59.4086979,73.8900674 L58.9987324,73.9171116 L58.9987324,78.4234882 L69.4808016,78.4234882 C70.1644101,78.4234882 70.7186683,78.9777464 70.7186683,79.661355 C70.7186683,80.3023391 70.2315273,80.8294468 69.6073586,80.8928314 L69.4808016,80.8992217 L46.1797237,80.8992217 C45.4960073,80.8992217 44.941857,80.3450714 44.941857,79.661355 C44.941857,79.020472 45.4289031,78.4932758 46.0531489,78.4298797 L46.1797237,78.4234882 L56.5229989,78.4234882 L56.5229989,73.9094487 C49.8529053,73.4933909 45.2580826,70.0999016 42.5242961,64.6800323 C41.5167992,62.6828464 40.834108,60.5550691 40.4122221,58.4290185 L40.3049075,57.8585165 L40.3049075,57.8585165 L40.21654,57.3298905 L40.21654,57.3298905 L40.1458579,56.8460326 L40.1458579,56.8460326 L40.0915997,56.4098348 L40.0915997,56.4098348 L40.052504,56.0241892 L40.052504,56.0241892 L40.0273091,55.6919879 C40.0241983,55.6412354 40.0216142,55.5928302 40.0195303,55.5468326 C39.9883934,54.8638177 40.5168571,54.2850061 41.199872,54.2539772 C41.8400973,54.2248875 42.3888325,54.6875394 42.4804906,55.3081826 L42.5208964,55.8033886 L42.5208964,55.8033886 L42.5510619,56.0957484 L42.5510619,56.0957484 C42.6127961,56.6520033 42.7070702,57.274849 42.8404677,57.9470712 C43.2215574,59.8673593 43.837172,61.7858665 44.7346375,63.5650942 C47.2485231,68.5489392 51.4280434,71.4929132 57.8242187,71.5130415 C64.2204481,71.4929132 68.3998065,68.5489392 70.9138,63.5650942 C71.8112655,61.7858665 72.4267722,59.8673053 72.8078618,57.9470712 C72.9413133,57.274849 73.0356414,56.6520033 73.0973756,56.0957484 L73.1383001,55.683441 L73.1383001,55.683441 L73.15571,55.4343189 L73.15571,55.4343189 C73.1868469,54.7514119 73.7656585,54.2229482 74.4485655,54.2539772 Z M57.7277861,34.0343181 C63.2652292,34.0343181 67.7717072,38.451584 67.9203849,43.9435284 L67.924173,44.2236897 L67.924173,57.2016207 C67.924173,62.8291412 63.3475899,67.3909923 57.7277861,67.3909923 C52.1903431,67.3909923 47.6838651,62.9738829 47.5351873,57.4817898 L47.5313993,57.2016206 L47.5313993,44.2236897 C47.5313993,38.5962771 52.1078745,34.0343181 57.7277861,34.0343181 Z M57.7278401,36.5100515 C53.5523235,36.5100515 50.1406309,39.8366182 50.0109562,43.9790926 L50.0071327,44.2236897 L50.0071327,57.2016206 C50.0071327,61.4575531 53.4658637,64.9152588 57.7278401,64.9152588 C61.9033567,64.9152588 65.3150493,61.5887959 65.444724,57.4462237 L65.4485475,57.2016206 L65.4485475,44.2236897 C65.4485475,39.9678651 61.9898165,36.5100515 57.7278401,36.5100515 Z"/>
  </g>
</svg>
