<svg xmlns="http://www.w3.org/2000/svg" width="20" height="20" viewBox="0 0 20 20">
  <g fill="#FFF" fill-rule="evenodd">
    <rect width="20" height="20" opacity="0"/>
    <path fill-rule="nonzero" d="M17.2545788,8.38095607 C17.5371833,8.39379564 17.7558133,8.63330387 17.7430184,8.91593074 L17.7371151,9.01650414 L17.7371151,9.01650414 L17.7143664,9.26243626 L17.7143664,9.26243626 L17.675151,9.56380287 L17.675151,9.56380287 L17.6172162,9.91546885 C17.6058754,9.97798618 17.5936607,10.0423853 17.5805252,10.1085594 C17.4059517,10.9883044 17.1234365,11.868764 16.7065636,12.6951858 C15.608809,14.8714882 13.7861076,16.2584571 11.1569912,16.495803 L10.8615444,16.5174255 L10.8615444,18.3821331 L15.1989524,18.3821331 C15.4818249,18.3821331 15.7111731,18.6114813 15.7111731,18.8943538 C15.7111731,19.1458357 15.5299597,19.3549563 15.2910197,19.3983228 L15.1989524,19.4065745 L5.55712706,19.4065745 C5.2742099,19.4065745 5.04490634,19.1772709 5.04490634,18.8943538 C5.04490634,18.6429116 5.22608446,18.4337601 5.46504803,18.3903863 L5.55712706,18.3821331 L9.83710301,18.382133 L9.83710301,16.5142546 C7.07706426,16.3420928 5.1757583,14.9378903 4.04453631,12.6951858 C3.62764105,11.868764 3.34514816,10.9883044 3.17057465,10.1085594 L3.13388183,9.91546885 L3.13388183,9.91546885 L3.07593716,9.56380287 L3.07593716,9.56380287 L3.03671385,9.26243626 L3.03671385,9.26243626 L3.01397193,9.01650414 C3.01143062,8.98042028 3.00948271,8.94686015 3.00808152,8.91593074 C2.99519728,8.63330387 3.2138719,8.39379564 3.49649877,8.38095607 C3.77908098,8.36811648 4.01858921,8.58679112 4.03142877,8.86937333 L4.04579166,9.04965974 L4.04579166,9.04965974 L4.05561184,9.14306831 C4.08115699,9.37324275 4.12016696,9.63097201 4.17536595,9.90913293 C4.33305822,10.7037349 4.5877953,11.4975999 4.95916033,12.2338321 C5.99938887,14.2961128 7.72884553,15.5143089 10.3755388,15.5226379 C13.0222544,15.5143089 14.7516441,14.2961128 15.7919173,12.2338321 C16.1632823,11.4975999 16.4179747,10.7037126 16.575667,9.90913293 C16.6124812,9.7236923 16.6421003,9.54733242 16.6653248,9.38216386 L16.7052821,9.04965974 L16.7052821,9.04965974 L16.7196041,8.86937333 L16.7196041,8.86937333 C16.7324884,8.58679115 16.9719966,8.3681165 17.2545788,8.38095607 Z M10.3356356,0.0142005962 C12.595216,0.0142005962 14.4399401,1.79169133 14.5496666,4.02028091 L14.5548302,4.23049229 L14.5548302,9.60067063 C14.5548302,11.9292998 12.6610717,13.8169623 10.3356356,13.8169623 C8.07605526,13.8169623 6.23133121,12.0395346 6.12160467,9.81088771 L6.11644109,9.60067061 L6.11644109,4.23049229 C6.11644109,1.90190776 8.01015495,0.0142005962 10.3356356,0.0142005962 Z M10.335658,1.03864201 C8.63472709,1.03864201 7.24010749,2.37267291 7.14594933,4.04955911 L7.1408825,4.23049229 L7.1408825,9.60067061 C7.1408825,11.3617461 8.57208154,12.7925209 10.335658,12.7925209 C12.0365888,12.7925209 13.4312084,11.4585316 13.5253666,9.78160809 L13.5304334,9.60067061 L13.5304334,4.23049229 C13.5304334,2.46946142 12.0992344,1.03864201 10.335658,1.03864201 Z"/>
  </g>
</svg>
