<svg xmlns="http://www.w3.org/2000/svg" width="50" height="50" viewBox="0 0 50 50">
  <g fill="#FFF" fill-rule="evenodd">
    <rect width="50" height="50" opacity="0"/>
    <path d="M18.625,5.7 C19.2739346,5.7 19.8,6.22606542 19.8,6.875 L19.8,42.125 C19.8,42.7739346 19.2739346,43.3 18.625,43.3 C17.9760654,43.3 17.45,42.7739346 17.45,42.125 L17.45,6.875 C17.45,6.22606542 17.9760654,5.7 18.625,5.7 Z M30.375,10.4 C31.0239346,10.4 31.55,10.9260654 31.55,11.575 L31.55,37.425 C31.55,38.0739346 31.0239346,38.6 30.375,38.6 C29.7260654,38.6 29.2,38.0739346 29.2,37.425 L29.2,11.575 C29.2,10.9260654 29.7260654,10.4 30.375,10.4 Z M6.875,15.1 C7.52393458,15.1 8.05,15.6260654 8.05,16.275 L8.05,32.725 C8.05,33.3739346 7.52393458,33.9 6.875,33.9 C6.22606542,33.9 5.7,33.3739346 5.7,32.725 L5.7,16.275 C5.7,15.6260654 6.22606542,15.1 6.875,15.1 Z M42.125,17.45 C42.7739346,17.45 43.3,17.9760654 43.3,18.625 L43.3,30.375 C43.3,31.0239346 42.7739346,31.55 42.125,31.55 C41.4760654,31.55 40.95,31.0239346 40.95,30.375 L40.95,18.625 C40.95,17.9760654 41.4760654,17.45 42.125,17.45 Z"/>
  </g>
</svg>
