<svg xmlns="http://www.w3.org/2000/svg" xmlns:xlink="http://www.w3.org/1999/xlink" width="16" height="16" viewBox="0 0 16 16">
  <defs>
    <rect id="ic_更换示例-a" width="16" height="16" x="0" y="0"/>
  </defs>
  <g fill="none" fill-rule="evenodd" transform="matrix(-1 0 0 1 16 0)">
    <mask id="ic_更换示例-b" fill="#fff">
      <use xlink:href="#ic_更换示例-a"/>
    </mask>
    <path fill="#2932E1" fill-rule="nonzero" d="M6.35459401,0.717547671 L7.1160073,1.36581444 L5.76391165,2.95149486 C8.45440978,1.82595599 11.6186236,2.72687193 13.331374,5.17293307 C15.3274726,8.02365719 14.6537425,11.9415081 11.8236048,13.9231918 C8.99346706,15.9048756 5.08146225,15.1979908 3.08536373,12.3472667 C2.43380077,11.4167384 2.05175569,10.3497586 1.95954347,9.24373118 L1.95954347,9.24373118 L1.91800137,8.74545992 L2.9145439,8.66237572 L2.956086,9.16064698 C3.03368894,10.0914452 3.35506892,10.9889989 3.90451578,11.7736903 C5.58491905,14.1735549 8.873856,14.7678536 11.2500283,13.1040398 C13.6262007,11.440226 14.1926253,8.14637409 12.512222,5.74650951 C11.0401872,3.64422594 8.29699921,2.89825126 6.0091042,3.93534448 L6.11200137,3.89054767 L7.69316988,4.63120811 L7.26907888,5.53682768 L3.68173666,3.85691748 L6.35459401,0.717547671 Z" mask="url(#ic_更换示例-b)"/>
  </g>
</svg>
