<svg xmlns="http://www.w3.org/2000/svg" width="20" height="20" viewBox="0 0 20 20">
  <g fill="#FFF" fill-rule="evenodd">
    <rect width="20" height="20" opacity="0"/>
    <path d="M7.5,2 C7.77614237,2 8,2.22385763 8,2.5 L8,17.5 C8,17.7761424 7.77614237,18 7.5,18 C7.22385763,18 7,17.7761424 7,17.5 L7,2.5 C7,2.22385763 7.22385763,2 7.5,2 Z M12.5,4 C12.7761424,4 13,4.22385763 13,4.5 L13,15.5 C13,15.7761424 12.7761424,16 12.5,16 C12.2238576,16 12,15.7761424 12,15.5 L12,4.5 C12,4.22385763 12.2238576,4 12.5,4 Z M2.5,6 C2.77614237,6 3,6.22385763 3,6.5 L3,13.5 C3,13.7761424 2.77614237,14 2.5,14 C2.22385763,14 2,13.7761424 2,13.5 L2,6.5 C2,6.22385763 2.22385763,6 2.5,6 Z M17.5,7 C17.7761424,7 18,7.22385763 18,7.5 L18,12.5 C18,12.7761424 17.7761424,13 17.5,13 C17.2238576,13 17,12.7761424 17,12.5 L17,7.5 C17,7.22385763 17.2238576,7 17.5,7 Z"/>
  </g>
</svg>
