<svg xmlns="http://www.w3.org/2000/svg" width="16" height="16" viewBox="0 0 16 16">
  <path fill="#F33E3E" d="M4.0976,1.3362 C4.4618,1.1488 4.8948,1.4234 4.8948,1.833 C4.8948,2.0362 4.7852,2.2266 4.6046,2.3194 C2.5386,3.3816 1.1214,5.5338 1.1214,8.0122 C1.1214,11.677 4.2184,14.632 7.9326,14.398 C11.1952,14.1922 13.816,11.4788 13.9156,8.2112 C13.9936,5.6502 12.5572,3.4112 10.4372,2.3204 C10.256,2.2272 10.1452,2.0376 10.1452,1.8338 C10.1452,1.422 10.5814,1.1504 10.9476,1.3392 C13.366,2.5862 15.024,5.109 15.024,8.0124 C15.024,12.3292 11.3596,15.8064 6.978,15.497 C3.3116,15.238 0.3328,12.2886 0.0406,8.6244 C-0.2116,5.4644 1.5076,2.6692 4.0976,1.3362 Z M7.52,0.004 C7.8252,0.004 8.0726,0.2514 8.0726,0.5566 L8.0726,6.3544 C8.0726,6.6596 7.8252,6.907 7.52,6.907 C7.2148,6.907 6.9674,6.6596 6.9674,6.3544 L6.9674,0.5566 C6.9674,0.2514 7.2148,0.004 7.52,0.004 Z"/>
</svg>
